<svg version="1.1" id="Layer_1" xmlns="http://www.w3.org/2000/svg" xmlns:xlink="http://www.w3.org/1999/xlink" x="0px" y="0px"
	 width="100%" viewBox="0 0 272 240" enable-background="new 0 0 272 240" xml:space="preserve">
<path fill="#000000" opacity="1.000000" stroke="none" 
	d="
M22.050955,90.985100 
	C25.174355,88.682030 25.895903,86.346100 25.092222,82.606316 
	C21.107191,64.062660 33.977955,49.020618 52.992413,49.811829 
	C56.089508,49.940697 57.237251,49.447636 57.835297,46.123913 
	C60.134377,33.346394 68.358849,25.560209 81.191948,23.580902 
	C83.998764,23.147995 85.988724,22.067690 87.775398,19.737755 
	C95.208633,10.044410 106.462280,6.644219 117.488625,10.451728 
	C128.574585,14.279822 135.224060,23.792238 135.229233,36.085941 
	C135.252945,92.382416 135.248962,148.678909 135.230499,204.975403 
	C135.226349,217.631027 128.346390,227.469589 116.933044,231.325333 
	C106.456642,234.864548 94.874756,230.878311 87.514618,221.001053 
	C86.009583,218.981308 84.345016,217.823898 81.865974,217.399185 
	C68.088928,215.038849 60.907089,208.165649 57.806408,194.293335 
	C57.292187,191.992722 57.191887,190.274673 53.936153,190.591980 
	C33.825733,192.551971 21.318974,176.203262 25.086309,158.000336 
	C25.641474,155.317902 25.977627,153.143021 23.434311,151.400742 
	C6.124462,139.542755 4.152284,106.394417 22.050955,90.985100 
M119.965813,219.495956 
	C122.415390,217.390549 124.762642,214.994202 125.091362,211.729568 
	C126.926186,193.507141 125.436012,175.271042 125.899323,156.980026 
	C124.414597,156.795197 123.768074,156.608871 123.137146,156.651794 
	C110.196541,157.531982 104.959976,153.435379 102.627464,140.572739 
	C101.172623,132.550003 95.000565,126.944557 86.881119,126.241035 
	C85.561935,126.126732 84.190292,126.094650 82.951653,125.690918 
	C80.847740,125.005157 79.615356,123.467751 79.846298,121.147728 
	C80.086021,118.739586 81.665520,117.799072 83.945808,117.645218 
	C93.276993,117.015633 100.895676,120.177376 106.669006,127.658432 
	C110.040291,132.026917 111.490646,137.062851 112.344650,142.399048 
	C113.062653,146.885361 116.446465,148.388748 120.380005,148.259033 
	C124.638176,148.118637 126.235985,145.581726 126.005371,141.201050 
	C125.664230,134.721008 125.728714,128.199799 126.014023,121.713417 
	C126.212883,117.192322 125.102043,115.208115 119.990730,115.206932 
	C110.591270,115.204758 101.778168,107.863434 99.988106,99.259384 
	C99.386681,96.368561 98.654358,92.850929 102.818802,91.923569 
	C106.435944,91.118088 107.619263,93.739906 108.439560,96.781342 
	C109.929077,102.304024 113.757660,105.549110 119.304306,106.564583 
	C124.485405,107.513138 125.921425,106.218040 125.932755,100.878464 
	C125.966354,85.048744 125.958405,69.218903 125.942749,53.389126 
	C125.935989,46.558044 126.099762,39.715878 125.768829,32.899002 
	C125.416702,25.645571 120.016754,19.778349 112.883591,18.216488 
	C105.793640,16.664089 99.113533,19.393288 95.831833,25.219856 
	C96.946396,26.974197 98.934425,27.630659 100.506859,28.814028 
	C106.859779,33.595062 110.175095,40.123138 111.253990,47.839760 
	C111.694008,50.986935 111.289108,54.337502 107.399529,54.789829 
	C103.517075,55.241322 102.636597,52.133884 102.070518,48.933929 
	C100.040497,37.458546 91.576881,30.850462 81.492950,32.732857 
	C70.776375,34.733349 64.392654,44.343227 66.667244,55.440033 
	C67.188301,57.982056 67.230324,60.081028 65.139984,61.738049 
	C63.063110,63.384388 61.119785,62.301113 59.128613,61.269810 
	C51.154373,57.139664 45.335155,57.723240 39.404568,63.136673 
	C33.461273,68.561707 31.649467,76.252693 34.578316,83.623856 
	C37.337563,90.568192 37.327293,90.603630 31.268721,95.041908 
	C14.977760,106.976051 13.846128,132.527802 29.072441,144.632416 
	C36.475105,150.517410 36.475101,150.517410 33.900314,159.369370 
	C31.794319,166.609650 34.101540,173.764557 40.210938,178.531281 
	C46.086498,183.115540 52.311924,183.601120 58.806755,179.834000 
	C60.799885,178.677917 62.711258,177.036102 65.173920,178.892654 
	C67.641792,180.753159 67.103859,183.037552 66.568481,185.634964 
	C64.287712,196.700043 72.157875,209.627838 86.232559,208.106384 
	C94.246971,207.240036 100.319191,201.687210 101.783722,192.521378 
	C102.304649,189.261078 103.275856,186.330994 107.225494,186.884079 
	C111.069557,187.422394 111.582840,190.553757 111.174583,193.782639 
	C110.731407,197.287643 109.412003,200.505249 107.725296,203.616150 
	C104.876060,208.871231 100.560257,212.622650 95.375847,215.273239 
	C100.407715,224.699738 110.454422,226.442688 119.965813,219.495956 
z"/>
<path fill="#000000" opacity="1.000000" stroke="none" 
	d="
M160.860809,12.002953 
	C162.914917,14.318802 165.097183,15.004054 167.807999,14.943150 
	C175.136154,14.778506 182.472168,14.956926 189.799866,14.781597 
	C194.340317,14.672958 196.465714,16.226063 196.432587,21.147350 
	C196.355194,32.649303 196.532532,32.652382 208.123398,32.675247 
	C211.289261,32.681496 214.458496,32.764256 217.620178,32.648026 
	C221.702469,32.497948 223.347168,34.510521 223.306366,38.418003 
	C223.247253,44.082550 223.430450,49.752079 223.261993,55.412094 
	C223.163773,58.711624 224.496536,59.830933 227.688492,59.735531 
	C233.015564,59.576302 238.354950,59.827576 243.681946,59.667194 
	C247.934143,59.539177 249.791901,61.373863 249.728119,65.597435 
	C249.592529,74.574516 249.631256,83.554138 249.514938,92.531631 
	C249.437225,98.531776 254.302124,106.239494 259.750854,108.515213 
	C265.904053,111.085167 268.666687,117.364433 266.229126,123.239861 
	C263.781403,129.139771 256.984222,131.988724 251.312012,129.492188 
	C245.743896,127.041466 243.271759,120.296844 245.737137,114.282539 
	C247.286743,110.502228 244.879074,102.217506 241.623123,100.126503 
	C238.690903,98.243416 230.583679,99.466179 227.680740,102.286674 
	C225.470810,104.433861 223.238556,106.135513 224.035706,110.211861 
	C225.250031,116.421562 219.666290,122.454536 213.372711,122.818947 
	C207.433319,123.162865 201.799805,117.698944 201.719315,111.516357 
	C201.639511,105.386566 207.001724,99.719048 213.249222,100.284065 
	C216.714539,100.597466 219.110901,99.773323 221.106415,97.314178 
	C224.651550,92.945381 229.069855,90.953262 234.705658,91.756660 
	C235.682648,91.895927 236.702286,91.763687 237.700546,91.719261 
	C239.096497,91.657135 240.490814,91.445053 240.565353,89.660538 
	C240.639801,87.878212 239.316605,87.425369 237.891663,87.422211 
	C224.395889,87.392334 210.900009,87.412117 197.404205,87.388809 
	C194.456543,87.383720 194.263535,89.893799 193.269958,91.708282 
	C189.870789,97.916130 183.408813,99.900101 177.594727,96.536469 
	C172.293716,93.469666 170.518463,86.420143 173.629364,80.790161 
	C175.810883,76.842194 180.589981,74.758263 186.249466,76.012642 
	C188.965210,76.614555 190.616592,75.929085 192.429138,74.165398 
	C196.248871,70.448608 200.268417,66.937515 204.100510,63.232941 
	C206.191376,61.211609 208.241043,59.421635 211.436554,59.641521 
	C213.751328,59.800804 214.704437,58.401962 214.708115,56.206276 
	C214.712021,53.873783 214.761078,51.541328 214.760345,49.208866 
	C214.757599,40.538639 213.947205,39.924549 205.140900,41.921989 
	C204.296967,43.551758 205.343872,45.139481 205.350571,46.763344 
	C205.372513,52.084118 202.493240,56.534756 197.868149,57.991528 
	C192.789429,59.591171 187.677414,58.039906 184.910126,54.059357 
	C181.928375,49.770309 181.707626,43.793770 185.507645,40.222340 
	C189.820084,36.169323 188.532089,31.418623 188.631989,26.748167 
	C188.679596,24.522669 186.991241,24.106394 185.176224,24.096497 
	C179.345032,24.064692 173.511917,24.124170 167.683304,23.988041 
	C164.764526,23.919872 163.872345,26.145365 162.398071,27.907743 
	C159.218719,31.708380 155.103790,33.265717 150.344528,31.575817 
	C145.555984,29.875521 142.566849,26.342215 142.378754,21.125408 
	C142.200012,16.168428 144.468353,12.355276 149.151428,10.480305 
	C153.065186,8.913344 156.982132,9.215620 160.860809,12.002953 
M211.503418,83.680069 
	C217.488297,83.682129 223.475021,83.781349 229.457657,83.666306 
	C242.490417,83.415726 240.705750,86.309578 240.881027,71.410339 
	C240.916306,68.411674 239.677505,67.281693 236.705582,67.326393 
	C229.226257,67.438873 221.743851,67.330803 214.263199,67.385277 
	C213.136841,67.393478 211.680023,67.425064 210.941925,68.081802 
	C205.573425,72.858498 200.349930,77.798141 194.796295,82.950005 
	C195.952057,83.397842 196.246704,83.609772 196.543091,83.612236 
	C201.197235,83.651016 205.851578,83.662796 211.503418,83.680069 
M196.573715,43.764503 
	C193.590103,42.371914 191.342453,43.313362 189.954803,46.125374 
	C188.952408,48.156685 190.272141,49.678341 191.730789,50.840462 
	C193.351395,52.131618 195.227615,52.034122 196.789001,50.735184 
	C199.156387,48.765713 199.123459,46.509556 196.573715,43.764503 
M184.760193,90.572624 
	C187.146927,89.061890 188.420334,87.149750 186.632706,84.433830 
	C185.548843,82.787109 183.907227,81.936203 181.935349,82.611870 
	C179.770828,83.353539 178.937408,85.117432 179.154205,87.309570 
	C179.446854,90.268669 181.344238,91.123177 184.760193,90.572624 
M155.626343,16.962503 
	C155.324326,16.835182 155.033371,16.657333 154.718552,16.588541 
	C152.221786,16.042957 150.531281,17.108063 149.660126,19.386791 
	C148.915436,21.334730 149.596954,23.010300 151.325455,24.072716 
	C153.200195,25.224997 155.221756,25.191715 156.702393,23.469934 
	C158.474136,21.409676 158.214554,19.257656 155.626343,16.962503 
M251.521591,119.310326 
	C252.502441,121.977325 253.699051,124.399582 257.214569,122.783165 
	C259.234283,121.854530 260.117065,120.129021 259.760498,117.902153 
	C259.461639,116.035469 258.193207,114.871635 256.431793,114.710983 
	C253.698730,114.461708 252.183975,116.100433 251.521591,119.310326 
M210.236267,114.496620 
	C212.416840,116.176590 214.550125,116.224609 216.146255,113.848511 
	C217.335617,112.077927 217.258484,110.074165 215.701859,108.429504 
	C214.427856,107.083443 212.756592,106.825333 211.213623,107.760811 
	C208.714294,109.276085 208.052429,111.399887 210.236267,114.496620 
z"/>
<path fill="#000000" opacity="1.000000" stroke="none" 
	d="
M149.331192,97.349960 
	C148.779556,83.143799 148.961502,69.327980 149.345627,55.510353 
	C149.417175,52.936775 149.843094,50.713341 152.986404,50.624958 
	C156.358109,50.530151 157.158325,52.889885 157.177139,55.623783 
	C157.231903,63.578411 157.196564,71.533661 157.196564,81.078323 
	C163.837799,74.807747 171.555893,71.333282 169.820923,61.266468 
	C169.235550,57.869957 169.696762,54.284962 169.757401,50.787453 
	C169.821075,47.114864 169.791367,43.865829 166.306061,41.077530 
	C163.182693,38.578789 164.152390,32.456234 167.249908,29.886349 
	C170.055511,27.558641 174.760178,27.754444 177.333557,30.305998 
	C180.177094,33.125431 180.375183,38.887905 177.114136,41.532097 
	C174.387756,43.742752 173.711960,46.215416 173.947113,49.362946 
	C174.046188,50.689270 173.986832,52.027187 174.006241,53.359737 
	C174.262924,70.977066 174.466721,71.200287 161.267090,83.234268 
	C153.143402,90.640564 157.626511,101.109940 165.735901,105.858551 
	C167.077423,106.644104 168.344437,105.826591 169.582550,105.481255 
	C174.355469,104.149994 178.156128,105.831276 181.108292,109.433968 
	C183.967178,112.922836 184.636215,116.936401 182.581818,121.109329 
	C180.481522,125.375526 176.901215,128.095993 172.225052,127.567070 
	C167.765869,127.062691 167.189651,128.815094 167.269119,132.488831 
	C167.442001,140.481506 167.416260,148.482605 167.258820,156.476074 
	C167.201645,159.379135 168.052261,161.571884 170.182236,163.520248 
	C173.374832,166.440628 176.406830,169.537277 179.491104,172.575226 
	C182.737366,175.772720 185.604889,178.424820 191.101852,176.077667 
	C196.159485,173.918121 201.707565,177.299759 203.781708,182.205780 
	C206.002258,187.458054 204.477661,193.274445 199.619308,196.198624 
	C197.103714,197.712723 195.856903,199.436707 196.456818,202.230026 
	C197.193298,205.659241 200.100876,204.402664 202.207016,204.550522 
	C205.025818,204.748383 207.869583,204.682343 210.699554,204.609711 
	C216.255081,204.467133 217.671021,201.974487 215.123184,196.949020 
	C212.438354,191.653305 213.386429,185.770081 217.468597,182.394867 
	C221.632950,178.951721 226.851837,178.796844 231.303635,181.984177 
	C237.947250,186.740799 237.553894,197.072754 230.196213,200.681793 
	C226.461182,202.513870 223.981354,204.961899 222.324890,208.527328 
	C220.814072,211.779297 218.394516,213.175980 214.764297,213.020340 
	C210.108124,212.820709 205.436554,213.013000 200.773453,212.931305 
	C197.679474,212.877121 196.044144,214.058472 196.344086,217.356583 
	C196.774841,222.092773 194.143707,223.402145 189.910477,223.324234 
	C182.749466,223.192444 175.583649,223.345734 168.420822,223.277191 
	C166.075607,223.254761 164.499069,223.940048 163.016281,225.983749 
	C158.908371,231.645676 151.531998,232.558884 146.353012,228.380295 
	C141.474640,224.444305 140.978653,217.085220 145.272049,212.342056 
	C149.760513,207.383392 156.988083,207.368805 162.088852,212.365097 
	C163.156555,213.410934 163.979706,214.737640 165.707748,214.734711 
	C172.370636,214.723404 179.033539,214.714386 185.696411,214.696915 
	C187.784485,214.691452 188.690598,213.540909 188.684265,211.542404 
	C188.671097,207.378189 188.639297,203.213943 188.647385,199.049774 
	C188.651154,197.105362 187.228226,196.154404 186.003220,195.041687 
	C183.207993,192.502625 181.654114,189.135117 182.543350,185.628510 
	C183.474258,181.957672 181.824646,180.179886 179.533096,178.017090 
	C174.209656,172.992722 167.171066,168.581726 164.455002,162.342957 
	C161.827896,156.308502 163.684799,148.297760 163.673111,141.154922 
	C163.658234,132.065979 163.722382,122.967285 161.139862,114.137543 
	C160.102585,110.591026 156.788986,108.822029 154.441238,106.303818 
	C152.120544,103.814598 148.685699,101.991196 149.331192,97.349960 
M176.515366,117.092392 
	C176.746872,113.646873 174.918365,112.014015 171.708511,112.412865 
	C168.911087,112.760460 167.913727,114.878006 168.419525,117.567459 
	C168.722672,119.179253 169.846420,120.227356 171.441101,120.510719 
	C173.741837,120.919571 175.193665,119.621941 176.515366,117.092392 
M191.063187,183.568161 
	C188.992218,185.607742 188.524048,187.788071 190.746857,189.974548 
	C192.378662,191.579681 194.277237,191.613556 196.088821,190.232086 
	C197.918213,188.837036 198.236450,186.937027 197.260666,184.963959 
	C196.058502,182.533173 194.193771,181.622498 191.063187,183.568161 
M149.399063,220.405579 
	C150.020386,223.169479 151.841110,224.202103 154.506332,223.759064 
	C156.305878,223.459946 157.431961,222.288116 157.706512,220.458527 
	C158.007782,218.450897 157.311905,216.716858 155.422226,215.985703 
	C151.967407,214.649002 150.188538,216.471603 149.399063,220.405579 
M222.573059,187.338882 
	C219.713470,190.745255 219.943253,193.615463 223.199829,194.623550 
	C224.886047,195.145538 226.477066,194.866013 227.738800,193.520966 
	C228.864883,192.320557 229.177170,190.807205 228.506073,189.394775 
	C227.466721,187.207245 225.624573,186.347549 222.573059,187.338882 
M172.884857,32.765377 
	C170.440948,32.223015 169.092880,33.528778 168.639191,35.664516 
	C168.294250,37.288368 169.404419,38.413601 170.840408,39.086430 
	C172.266541,39.754642 173.431091,39.168839 174.254272,38.034161 
	C175.610611,36.164650 175.574326,34.410385 172.884857,32.765377 
z"/>
<path fill="#000000" opacity="1.000000" stroke="none" 
	d="
M215.251160,167.905975 
	C223.879364,167.909409 232.045593,167.758713 240.201141,167.987701 
	C244.408859,168.105850 245.840240,166.426788 245.621780,162.382233 
	C245.388565,158.064270 245.456299,153.719360 245.615662,149.394424 
	C245.734360,146.173279 244.521637,144.739929 241.236588,145.112244 
	C239.921005,145.261383 238.572891,145.174805 237.242035,145.127182 
	C234.216431,145.018875 233.209488,145.975586 233.850952,149.321060 
	C235.231384,156.520355 231.734711,161.905548 225.309036,163.433136 
	C219.217270,164.881317 213.276947,160.929611 211.901001,154.513626 
	C210.655228,148.704620 214.801453,142.385513 220.806564,141.714325 
	C224.250519,141.329391 227.023499,140.455490 229.653198,138.043762 
	C232.170349,135.735245 235.731186,136.843353 238.832306,136.840378 
	C255.250443,136.824585 253.221680,135.240280 253.323517,151.140778 
	C253.364059,157.470123 253.238403,163.801590 253.355209,170.129013 
	C253.433746,174.382462 251.410217,176.209427 247.306396,176.204865 
	C235.147049,176.191315 222.987488,176.187103 210.828415,176.252167 
	C208.319992,176.265579 206.330368,175.384140 204.564316,173.682770 
	C200.367371,169.639542 196.081467,165.687607 191.928635,161.600113 
	C190.128494,159.828323 188.400818,159.124878 185.715240,159.660187 
	C178.631378,161.072159 173.166382,156.866150 172.351227,149.813736 
	C171.606094,143.366898 176.614136,137.507019 183.062149,137.280975 
	C189.554703,137.053375 195.285538,142.752991 194.760681,149.482971 
	C194.550446,152.178604 195.339844,153.936691 197.083023,155.640030 
	C200.060806,158.549759 203.133011,161.377136 205.930298,164.453049 
	C208.379272,167.145981 211.186203,168.411957 215.251160,167.905975 
M184.805878,152.415009 
	C187.208771,151.229202 188.385361,149.453979 187.119217,146.834015 
	C186.152893,144.834488 184.399902,143.914566 182.214569,144.554520 
	C180.065460,145.183853 178.966003,146.822525 179.222687,149.059906 
	C179.548264,151.897812 181.365631,152.942093 184.805878,152.415009 
M222.675949,148.264969 
	C219.760406,148.876724 218.405792,150.665131 219.065933,153.583084 
	C219.502289,155.511871 220.867645,156.725098 222.982285,156.629547 
	C225.249298,156.527115 226.747604,155.173431 227.079315,153.052307 
	C227.497757,150.376617 226.150833,148.677216 222.675949,148.264969 
z"/>
<path fill="#000000" opacity="1.000000" stroke="none" 
	d="
M151.949371,178.696014 
	C152.307251,181.529068 151.177536,184.066956 152.415390,186.262039 
	C154.973557,186.969376 155.437622,184.992142 156.428497,183.788528 
	C161.239609,177.944489 168.044632,177.251434 173.490616,182.051132 
	C178.274506,186.267319 178.473450,193.207870 173.949036,198.044800 
	C168.848267,203.497894 162.316330,203.502594 157.086014,197.581390 
	C154.942123,195.154282 152.577164,195.092850 149.930191,195.201324 
	C145.530518,195.381622 143.609604,193.459702 143.647690,188.952866 
	C143.767166,174.811539 143.699951,160.668259 143.631256,146.526093 
	C143.619278,144.059738 144.253586,142.026459 145.964462,140.194305 
	C148.914780,137.034851 151.678268,133.701691 154.595581,130.510376 
	C156.362747,128.577225 158.375565,128.545685 160.296585,130.306519 
	C162.226837,132.075836 162.263870,134.025803 160.569824,136.013824 
	C160.354034,136.267059 160.180313,136.583832 159.914139,136.762421 
	C151.874359,142.156769 151.332108,150.147995 151.878860,158.779861 
	C152.288193,165.242325 151.954910,171.751831 151.949371,178.696014 
M163.446655,186.778412 
	C161.385544,188.509552 160.677643,190.540466 162.335098,192.890976 
	C163.537094,194.595596 165.255844,195.055649 167.184586,194.225342 
	C169.078171,193.410187 170.099655,191.897186 169.695755,189.841766 
	C169.094803,186.783524 167.028091,185.846069 163.446655,186.778412 
z"/>
<path fill="#000000" opacity="1.000000" stroke="none" 
	d="
M61.555527,82.177719 
	C68.566193,86.739830 71.574913,93.004364 70.027550,100.736847 
	C68.522972,108.255493 63.258888,112.720795 55.916588,114.632278 
	C52.702415,115.469055 49.162666,115.773224 48.097942,111.718323 
	C47.012657,107.585136 50.130344,106.343895 53.536671,105.654449 
	C58.095371,104.731758 61.298405,102.038651 61.328465,97.268333 
	C61.359226,92.385742 57.959267,90.019043 53.421547,89.077415 
	C50.260345,88.421432 46.569519,87.605965 47.187222,83.464012 
	C47.858128,78.965340 51.865585,79.602501 55.195713,79.783897 
	C57.415215,79.904800 59.339333,80.911812 61.555527,82.177719 
z"/>
<path fill="#000000" opacity="1.000000" stroke="none" 
	d="
M50.774933,150.131149 
	C53.997513,139.960144 60.406185,133.955444 70.776047,132.634979 
	C73.460991,132.293106 76.469772,132.021118 77.131134,135.646896 
	C77.808968,139.363007 75.207306,140.448578 72.142754,141.099411 
	C64.253593,142.774887 59.586502,147.631485 58.499447,155.549088 
	C58.081200,158.595367 57.701660,161.691116 53.812206,161.017517 
	C50.147427,160.382782 49.650597,157.171631 50.007515,153.948547 
	C50.135021,152.797089 50.461460,151.667664 50.774933,150.131149 
z"/>
<path fill="#000000" opacity="1.000000" stroke="none" 
	d="
M91.903183,177.428925 
	C85.586159,174.168015 82.024788,169.143173 80.188568,162.830597 
	C79.250320,159.605087 79.002495,156.114319 83.095360,155.105042 
	C86.964363,154.150970 88.323975,157.235107 88.857185,160.369888 
	C89.865967,166.300659 93.403305,169.327850 99.217262,170.035172 
	C102.529961,170.438171 105.255310,171.797760 104.603134,175.652252 
	C103.996529,179.237457 100.982811,179.649582 97.982361,179.172653 
	C96.040001,178.863922 94.165207,178.130203 91.903183,177.428925 
z"/>
<path fill="#000000" opacity="1.000000" stroke="none" 
	d="
M88.247490,83.738754 
	C86.714546,84.012703 85.560608,84.272728 84.411613,84.252457 
	C81.890305,84.207954 80.293076,82.790764 79.989998,80.358650 
	C79.707832,78.094315 80.993774,76.449532 83.149124,75.874550 
	C87.480591,74.719032 90.533043,72.293427 92.144630,68.022064 
	C93.072609,65.562569 94.892136,64.120132 97.622772,65.124344 
	C100.311668,66.113205 100.790077,68.539642 100.237083,70.936455 
	C98.772476,77.284439 94.638519,81.338387 88.247490,83.738754 
z"/>
</svg>